<svg xmlns="http://www.w3.org/2000/svg" width="79.135628mm" height="16.673031mm" viewBox="0 0 79.135628 16.673031"><path d="M2335.26 34.54h709.85v2186.39h-709.85zm856.82 0h709.98V3075.8h-709.98zm856.94 0H4759V3075.8h-709.98zm7640.78 2186.25h710v-225.44c105.1 170.12 260.5 238.17 474.7 246.73v-752.79h-84c-252.1 0-390.7-144.66-390.7-412.68V34.512h-710zm-9411.23 556.42c0 230.17 184.35 416.84 411.64 416.84 227.4 0 411.75-186.67 411.75-416.84 0-230.18-184.35-416.85-411.75-416.85-227.29 0-411.64 186.67-411.64 416.85m9264.13-560.03h-710v-162.83c-99.6 110.18-331.7 201.25-508.2 201.25-619.49 0-1037.26-477.6-1037.26-1149.73C9287.24 433.859 9757.3 0 10332.8 0c176.5 0 369.8 59.602 499.9 157.391V34.02h710v956.94c0 39.229-.2 77.539-1 114.909.8 37.38 1 75.68 1 114.91zM10365.1 720.391c-227.4 0-411.63 186.789-411.63 416.949 0 230.18 184.23 416.85 411.63 416.85s411.6-186.67 411.6-416.85c0-230.16-184.2-416.949-411.6-416.949M14450 3075.99v-965.5c-138.6 97.79-298.2 140.26-491.6 140.26-592.2 0-1054.3-463.59-1054.3-1131.33 0-629.432 445.3-1114.31 987.1-1114.31 222.8 0 403.3 72.32 571.4 229.601V34.84h697.4v3041.15Zm-418-2370.291c-227.4 0-411.6 186.781-411.6 416.961s184.2 416.84 411.6 416.84 411.7-186.66 411.7-416.84-184.3-416.961-411.7-416.961M6116.4 2250.15c-193.27 0-352.97-42.59-491.61-140.26v965.5h-709.98V34.129h697.36v199.973C5780.32 76.719 5960.85 4.398 6183.63 4.398c541.82 0 987.13 484.883 987.13 1114.302 0 667.85-462.09 1131.45-1054.36 1131.45m-75.57-1549.791c-227.41 0-411.76 186.661-411.76 416.961 0 230.06 184.35 416.72 411.76 416.72 227.28 0 411.63-186.66 411.63-416.72 0-230.3-184.35-416.961-411.63-416.961M1201.58 2250.15c-193.26 0-352.967-42.59-491.603-140.26v965.5H0V34.129h697.359v199.973C865.508 76.719 1046.04 4.398 1268.81 4.398c541.82 0 987.13 484.883 987.13 1114.302 0 667.85-461.97 1131.45-1054.36 1131.45m-75.57-1549.791c-227.401 0-411.756 186.661-411.756 416.961 0 230.06 184.355 416.72 411.756 416.72 227.28 0 411.63-186.66 411.63-416.72 0-230.3-184.35-416.961-411.63-416.961" style="fill:#000;fill-opacity:1;fill-rule:nonzero;stroke:none" transform="matrix(.00522 0 0 -.00522 0 16.673)"/><path d="M8231.67 2268.72c-613.35 0-1100.67-510.47-1100.67-1131.33C7131 516.289 7614.03 5.832 8231.67 5.832c621.79 0 1100.65 514.75 1100.65 1131.558 0 616.58-487.31 1131.33-1100.65 1131.33m0-1535.099c-227.4 0-411.64 186.66-411.64 416.959 0 230.07 184.24 416.83 411.64 416.83 227.39 0 411.62-186.76 411.62-416.83 0-230.299-184.23-416.959-411.62-416.959" style="fill:#000;fill-opacity:1;fill-rule:nonzero;stroke:none" transform="matrix(.00522 0 0 -.00522 0 16.673)"/></svg>