<svg xmlns="http://www.w3.org/2000/svg" width="960.000000pt" height="276.000000pt" version="1.0" viewBox="0 0 960.000000 276.000000"><path d="M37 8.6C24.8 11.8 13.5 20.2 8.8 29.5 2.9 40.9 3 40.2 3 93.7c0 47.3.1 49.6 2.1 55.5 5.2 15.4 17.3 26.4 32.7 29.7 7.2 1.5 12.3 1.4 19.6-.5 12.4-3.2 23.6-12.3 29-23.7 4.2-8.9 4.8-18.7 4.4-68.2-.5-48.8-.5-48.4-7.5-59.2-6.3-9.6-15.1-15.7-27-18.8-7-1.8-12.1-1.8-19.3.1zm18.6 13.1c10.2 3.4 17.1 10 20.5 19.9 1.9 5.3 2 8.2 1.7 53.7l-.3 48.2-2.8 5.7c-3 6.2-8.3 11.5-14.9 15-3.5 1.8-5.9 2.2-12.8 2.2-7.3 0-9.3-.4-13.6-2.6-7.3-3.8-12.6-9.5-15.2-16.2-2.2-5.7-2.2-6.7-2.2-53.9 0-54.1 0-54 7.3-62.3 8.7-9.9 20.8-13.6 32.3-9.7z"/><path d="M44.1 71.3c-2.6 8.6-9.7 14.8-19.3 16.9l-5.3 1.1 5 1.2c2.8.6 6.4 1.9 8.1 2.8 4.6 2.4 9.9 9 11.7 14.5 1.2 3.8 1.6 4.3 2.2 2.7 2.1-6.2 3.2-8.2 5.8-11.2 4.5-5.1 8.5-7.5 14.6-8.8l5.6-1.2-4.5-.8c-5.9-1-10.8-3.6-14.6-7.7C50 77.2 47 72 47 69.6c0-3.2-1.6-2.2-2.9 1.7zM116.7 7.7c-.4.3-.7 43.8-.7 96.5 0 76.7.3 95.8 1.3 95.8 1.5 0 8.7-4.8 10.4-6.9 1-1.2 1.2-22.9 1.3-93.9V7h-5.8c-3.2 0-6.2.3-6.5.7zM178 71.1v64.2l-17 16.5c-9.3 9-17 16.8-17 17.2 0 1.4 5.2 3 9.9 3s4.8-.1 17.7-12.4l13-12.3 12.9 12.3c13.4 12.8 14.6 13.5 21.8 12.3 7.7-1.3 7.4-1.8-11-20l-17.3-17V7h-13v64.1zM241 40.5V74h-20v13h20v56.5c0 55.7 0 56.5 2 56.5 1.1 0 4-2 6.5-4.3l4.5-4.4-.2-91.9-.3-91.9-6.2-.3-6.3-.3v33.6zM267 103.5c0 66.1.3 96.5 1 96.5 2.2 0 9-4.1 10.5-6.3 1.3-2.1 1.5-13.4 1.3-94.3l-.3-91.9-6.2-.3-6.3-.3v96.6zM389 40.5V74h-20v13h20.1l-.3 6.6-.3 6.6-9.5.2-9.5.1-.3 6.2-.3 6.3H389v43c0 35.4.2 43 1.3 43 2.4 0 9.7-5.9 10.7-8.6.6-1.6.9-36.4.8-92.7l-.3-90.2-6.2-.3-6.3-.3v33.6zM415.7 7.7c-.8.7-1 191.3-.2 191.3 1.6 0 6.5-2.8 9.3-5.4l3.2-3V7h-5.8c-3.2 0-6.2.3-6.5.7zM567.3 8.5c-11.5 3.1-20.4 9.4-26.6 18.8-7 10.5-7.1 11-7.5 62-.2 30 0 48.3.8 52.9 1.4 9.2 5.2 17 11.4 23.6 20.8 22.1 56.3 17.4 70.3-9.3 5.3-9.9 5.3-10.4 5.3-62.5 0-52.4-.1-53.3-5.5-64-3.1-6.1-11.6-14.4-17.9-17.5-10.9-5.2-20.7-6.5-30.3-4zm22.9 14.9c3.4 1.6 7.5 4.7 10.2 7.7 7.8 8.7 7.7 7.9 7.4 64l-.3 49.4-2.3 4.8c-3 5.9-8.7 11.6-14.9 14.7-4 2-6.2 2.5-13.3 2.4-7.2 0-9.3-.4-13.6-2.7-5.9-3-11.7-9.2-14.8-15.7-2.1-4.4-2.1-5.6-2.1-54 0-47 .1-49.8 2-54 7.4-17.1 25.5-24.3 41.7-16.6z"/><path d="M575 71.5c-.7 2.5-3 6.5-5.1 8.8-3.4 3.9-5.6 5.2-13.9 8.4-2.2.9-2.1 1 2.4 2.2 6.5 1.6 14.6 9.6 16.6 16.3 1.5 5.2 2.4 5.4 3.3.8 1.4-6.9 8.1-13.8 16.6-17.1l4.6-1.7-3-.7c-7.5-1.7-16.8-10.8-18.2-17.8-.9-4.3-1.9-4.1-3.3.8zM641 103.5c0 53.1.2 96.5.5 96.5 1.8 0 8.6-4.4 10.4-6.6 2.1-2.6 2.1-3.4 2.1-53.5V89h24V76h-24V7h-13v96.5zM725.1 8.6c-13.3 3.6-23.3 11.8-29.4 24.3l-3.2 6.6-.3 50.9c-.2 32.3.1 52.7.7 55.8 1.6 7.2 4.9 13.4 10.3 19.3 13.5 14.8 34.4 18.5 52 9.3 7.2-3.8 16.1-13.1 19.3-20 4.3-9.4 4.6-15.2 4.3-65.3-.4-45.3-.4-47.2-2.5-52.7-5.5-14.7-16.3-24.2-31.9-28.3-7.1-1.8-12.2-1.8-19.3.1zm22.1 14.3c9.1 3.9 15.6 11.9 17.7 21.9 1.5 7.3 1.5 90.1 0 97.4-1.5 7-3.9 11.5-8.6 15.9-6.6 6.4-11.6 8.3-21.3 8.3-7.6.1-9.1-.3-13.9-2.9-6.2-3.4-11.8-9.6-14.3-15.8-1.5-3.8-1.7-9.3-1.7-54.4l-.1-50.1 3.3-6.3c7.3-14.3 24.2-20.3 38.9-14z"/><path d="M733.6 70.4c-1.5 7.9-11.4 16.4-20.6 17.7-4.7.6-4 1.3 2.1 2.3 8 1.4 17 9.9 18.6 17.6.6 3.1 2.3 4.2 2.3 1.5 0-3.1 4-9.3 8.6-13.4 4.5-3.9 9.5-6.1 14.2-6.1 1.2 0 2.2-.5 2.2-1 0-.6-1.5-1-3.2-1-4.5-.1-10.7-3-14.6-7-3.5-3.4-7.2-9.9-7.2-12.5 0-2.9-1.8-1.5-2.4 1.9zM799.7 7.7c-.9.8-.9 190.7-.1 191.6 1 1 8-3 10.3-5.9 2.1-2.7 2.1-2.8 2.1-94.5V7h-5.8c-3.2 0-6.2.3-6.5.7zM314 15.5V22h30v113.5l-16 16c-8.8 8.8-16 16.3-16 16.6 0 1.2 6.1 2.9 10.3 2.9 3.7 0 4.8-.8 17.9-13.2 7.7-7.3 14.6-14.5 15.4-16 1.2-2.2 1.4-13.6 1.4-67.8V9h-43v6.5zM844 36v26h40v14h-41.1l.3 6.2.3 6.3h112l.3-6.3.3-6.2H897V62l29.3-.2 29.2-.3.3-6.2.3-6.3-49.8-.2-49.8-.3-.3-12.8-.3-12.7h100.2l-.3-6.3-.3-6.2-55.7-.3L844 10v26zM479.5 69.7c-2.1 8.8-10.2 16.4-19.7 18.4l-5.3 1.2 5.2 1.2c2.9.7 7.1 2.4 9.3 3.9 4.5 3 9.5 10 10.6 14.9l.7 3.2 1.6-4.1c3.9-9.8 10.8-16 20-17.9l5.6-1.2-4.5-.8c-9.4-1.6-15.6-6.5-20-15.8-2.7-5.5-2.8-5.6-3.5-3zM843.4 101.4c-.3.7-.4 3.5-.2 6.2l.3 4.9 50 .5 50 .5.3 3.6c.4 4.5 1.2 3.9-25.3 19.1-11 6.4-28.3 16.4-38.5 22.3-10.2 5.9-19.8 11.5-21.5 12.4-11.5 6.4-16.5 9.7-16.5 10.8 0 2.4 3 8.6 4.8 9.9 2.7 2.1 98.1 2 102.1-.1 3.7-1.9 8.1-7.1 8.1-9.6 0-1.8-1.3-1.9-44.2-1.9h-44.3l7-4.1c7.3-4.3 26.7-15.4 34.5-19.7 2.5-1.4 7.9-4.6 12-7.1 4.1-2.6 8.6-5.2 10-5.9 1.4-.7 7.2-4.1 13-7.5l10.5-6.3v-28.9l-55.8-.3c-46.8-.2-55.8 0-56.3 1.2zM167.4 251.8c-3.7.5-5.9 3.8-4.8 7 .7 2 2.2 3.2 6.2 4.6 3.6 1.3 5.2 2.4 5.2 3.6 0 3.4-5.3 4-8.5 1-1.8-1.7-2.4-1.8-3.3-.7-3 3.6 7.7 7.3 12.3 4.3 4.7-3.1 2.1-10.6-3.6-10.6-2.7 0-6-3.3-5-4.9 1.2-1.8 6.2-1.7 7.6.2.7 1 1.6 1.3 2.5.7 1.2-.7 1.1-1.2-.3-2.8-1.9-2.1-4.8-2.9-8.3-2.4zM324.4 252.5c-3.8 1.6-4.4 3-4.4 10.4 0 7.3 2.1 9.6 8.7 9.6 3.5 0 4.8-.5 6.3-2.5 1.1-1.4 2-3.8 2-5.3 0-2.7-.2-2.8-4.2-2.5-4.8.3-5.7 2-1.5 2.8 2.6.5 2.7.6 1.2 2.7-1.8 2.6-5.1 2.9-7.7.9-2.1-1.6-2.5-10.5-.6-12.4 1.9-1.9 7.4-1.5 8.9.8.9 1.3 1.8 1.7 2.7 1.1 1.1-.6.9-1.4-1-3.4-2.9-3.2-6.4-3.9-10.4-2.2zM780 252.2c-4.8 1.8-6 3.7-6 9.8 0 7.2 1.9 9.9 7.6 10.7 3.3.4 4.5.1 6.8-1.9 3.6-3.1 4.6-9.9 2.2-14.6-.9-1.8-1.8-3.2-1.9-3.2-.1 0-1.6-.4-3.2-.9-1.7-.5-4.1-.4-5.5.1zm6.8 4c1.8 1.8 1.5 9.8-.5 12-2 2.2-5.1 2.3-7.5.1-2.3-2.1-2.5-9.5-.2-11.7 1.8-1.9 6.5-2.1 8.2-.4zM95 252.5c-.1.3-.1 4.9-.1 10.2-.1 7.5.2 9.8 1.3 9.8 1 0 1.4-2.5 1.6-10.3.2-8.6 0-10.2-1.3-10.2-.8 0-1.5.2-1.5.5zM243 262.5V273h6.5c5.1 0 6.5-.3 6.5-1.5 0-1.1-1.2-1.5-5-1.5h-5v-7h5.1c3.6 0 4.9-.4 4.6-1.3-.2-.7-2.2-1.2-4.8-1.3-4 0-4.4-.3-4.7-2.7-.3-2.6-.2-2.7 4.7-2.7 3.9 0 5.1-.4 5.1-1.5 0-1.2-1.4-1.5-6.5-1.5H243v10.5zM400.1 254.2c.7 1.3 2.2 3.9 3.5 5.9 1.2 2 2.4 5.6 2.6 8 .2 3.1.7 4.4 1.8 4.4s1.6-1.3 1.8-4.5c.2-2.4.7-4.9 1.1-5.5.4-.5 2-3.1 3.5-5.8 2.5-4.3 2.5-4.7.8-4.7-1.3 0-2.8 1.6-4.3 4.5-1.3 2.5-2.7 4.5-3 4.5-.3 0-1.6-2-2.8-4.5-1.5-3-2.9-4.5-4.2-4.5-1.7 0-1.8.3-.8 2.2zM481.2 262.2l.3 10.3h6.4c4.3 0 6.6-.4 6.9-1.3.2-.8-1.1-1.2-4.7-1.2H485v-3.5c0-3.5 0-3.5 4.6-3.5 3.2 0 4.4-.4 4.1-1.3-.2-.7-2.1-1.2-4.5-1.2-3.9 0-4.2-.2-4.2-2.8 0-2.5.3-2.7 4.5-2.7 3.3 0 4.5-.4 4.5-1.5 0-1.2-1.4-1.5-6.5-1.5h-6.6l.3 10.2zM626.2 262.2c.2 8.4.6 10.3 1.8 10.3 1.2 0 1.5-1.8 1.5-10 0-8.8-.2-10-1.8-10.3-1.6-.3-1.7.5-1.5 10zM694 262.5V273h3.3c6 0 10.6-1.9 12.2-5 2.5-4.8 1.9-9.7-1.4-13.1-2.6-2.5-3.7-2.9-8.5-2.9H694v10.5zm11.5-6.1c1.4 1 2 2.6 2 5.5 0 5-2 7.2-6.6 7.4l-3.4.2-.3-7.3-.3-7.2h3.4c1.8 0 4.2.6 5.2 1.4zM855 262.5v10.6l6.2-.3c7.8-.4 9.5-2.8 1.9-2.8H858v-9c0-7.3-.3-9-1.5-9s-1.5 1.8-1.5 10.5z"/></svg>